<svg width="256" height="256" viewBox="0 0 24 24" fill="none" xmlns="http://www.w3.org/2000/svg">
  <rect width="24" height="24" fill="oklch(0.4365 0.1044 156.7556)"/>
  
  <path 
    d="M12 15C13.6569 15 15 13.6569 15 12C15 10.3431 13.6569 9 12 9C10.3431 9 9 10.3431 9 12C9 13.6569 10.3431 15 12 15Z" 
    fill="oklch(0.9213 0.0135 167.1556)"
  />
  <path 
    d="M19.03 7.39L16.29 4.66L14.47 5.66L14.73 7.82L12.44 8.78L12 6.5C12 5.5 13 4 14.5 4L15.3 2.5L16.5 2.5L16.7 4C18.2 4 19.2 5.5 19.2 6.5V7.39H19.03Z" 
    fill="oklch(0.9213 0.0135 167.1556)"
    transform="rotate(0, 12, 12)"
  />
  <path 
    d="M19.03 7.39L16.29 4.66L14.47 5.66L14.73 7.82L12.44 8.78L12 6.5C12 5.5 13 4 14.5 4L15.3 2.5L16.5 2.5L16.7 4C18.2 4 19.2 5.5 19.2 6.5V7.39H19.03Z" 
    fill="oklch(0.9213 0.0135 167.1556)"
    transform="rotate(90, 12, 12)"
  />
  <path 
    d="M19.03 7.39L16.29 4.66L14.47 5.66L14.73 7.82L12.44 8.78L12 6.5C12 5.5 13 4 14.5 4L15.3 2.5L16.5 2.5L16.7 4C18.2 4 19.2 5.5 19.2 6.5V7.39H19.03Z" 
    fill="oklch(0.9213 0.0135 167.1556)"
    transform="rotate(180, 12, 12)"
  />
  <path 
    d="M19.03 7.39L16.29 4.66L14.47 5.66L14.73 7.82L12.44 8.78L12 6.5C12 5.5 13 4 14.5 4L15.3 2.5L16.5 2.5L16.7 4C18.2 4 19.2 5.5 19.2 6.5V7.39H19.03Z" 
    fill="oklch(0.9213 0.0135 167.1556)"
    transform="rotate(270, 12, 12)"
  />
</svg>